# xmcd
#
# Track frame offsets:
# 150
# 16072
# 31260
# 45985
# 60117
# 75100
# 87800
# 101717
# 114377
# 127062
#
# Disc length: 1870 seconds
#
#
# Revision: 6
# Processed by: cddbd v1.5.2PL0 Copyright (c) Steve Scherf et al.
# Submitted via: FreeRIP 2.53 
#
DISCID=62074c0a
DTITLE=Frank Aguiar - Um Show de Forró IV
DYEAR=1999
DGENRE=Country
TTITLE0=Mulher Madura
TTITLE1=Pot-Pouri O Calorão, Joao Tatu
TTITLE2=Forró Brega
TTITLE3=Comendo Água
TTITLE4=Pot-Pouri Amanhecer No Sertão, Onde O Sonho Mora
TTITLE5=Pot-Pouri Viver Por Você, Nega Princesa
TTITLE6=Pot-Pouri Pe De Bode, Nóis Não Vive Sem Muie
TTITLE7=Pot-Pouri  Bacana, Marido Descarado
TTITLE8=Pot-Pouri Ficar Comigo, Dia De Pagamento
TTITLE9=Pot-Pouri  Valeu Boi/Valeu A Vaca, Aqui Agora
EXTD=YEAR: 1999
EXTT0=
EXTT1=
EXTT2=
EXTT3=
EXTT4=
EXTT5=
EXTT6=
EXTT7=
EXTT8=
EXTT9=
PLAYORDER=
